<svg width="64" height="64" viewBox="0 0 64 64" fill="none" xmlns="http://www.w3.org/2000/svg">
<path d="M28.3542 63.9185C18.0656 62.665 9.22535 56.8201 4.09226 47.8774C2.19439 44.571 0.928222 40.9361 0.246659 36.8374C-0.0810191 34.8668 -0.0822282 29.1865 0.243109 27.2033C1.15227 21.6869 3.15831 16.9673 6.47229 12.5474C7.51557 11.1559 10.5772 8.01451 11.9013 6.97675C16.8894 3.06756 22.5948 0.734127 28.7057 0.104023C30.7707 -0.10892 35.263 0.0209661 37.1795 0.34907C41.1105 1.02198 44.7753 2.32801 47.9634 4.19201C56.9817 9.46489 62.8362 18.4885 63.8936 28.7449C64.1108 30.8514 63.9794 35.3187 63.6446 37.2128C62.9374 41.214 61.7185 44.6583 59.8708 47.8774C55.4998 55.4925 48.3901 60.9228 39.925 63.1116C37.3314 63.7822 35.9054 63.9512 32.4812 63.9934C30.7266 64.0151 28.8688 63.9814 28.3527 63.9185H28.3542ZM22.5994 36.7123V25.0137H18.7837H14.9679V36.7123V48.411H18.7837H22.5994V36.7123ZM34.762 41.1228L34.7971 33.8346L35.1475 33.0839C35.5706 32.1773 36.3293 31.3655 37.1741 30.9151C37.7317 30.6179 37.9356 30.5817 39.0507 30.5816C40.2067 30.5815 40.3533 30.61 40.9802 30.9569C42.1577 31.6083 42.7793 32.8005 42.9915 34.8145C43.0579 35.4454 43.1133 38.7627 43.1145 42.1863L43.118 48.411H46.9413H50.7646L50.7156 40.4972C50.6688 32.9542 50.6541 32.5323 50.4014 31.492C49.2997 26.9565 46.3359 24.5118 41.9295 24.5042C40.2001 24.5007 39.4487 24.6563 38.1224 25.2898C37.073 25.791 35.9894 26.7196 35.0867 27.8914L34.7493 28.3293L34.7426 26.6715L34.7359 25.0137H30.9201H27.1045V36.7123V48.411H30.9163H34.7282L34.762 41.1228ZM20.8774 21.2192C22.3697 20.489 23.1922 19.0564 23.0704 17.3993C22.8891 14.9322 20.7863 13.4039 18.0821 13.7738C16.0434 14.0526 14.6778 15.4291 14.5006 17.3839C14.3407 19.1474 15.4223 20.7999 17.1363 21.4109C18.1446 21.7703 19.9391 21.6783 20.8774 21.2192Z" fill="#533E0E"/>
</svg>
